<?xml version="1.0" standalone="no"?>
<!DOCTYPE svg PUBLIC "-//W3C//DTD SVG 20010904//EN"
 "http://www.w3.org/TR/2001/REC-SVG-20010904/DTD/svg10.dtd">
<svg version="1.0" xmlns="http://www.w3.org/2000/svg"
 width="1640.000000pt" height="1640.000000pt" viewBox="0 0 1640.000000 1640.000000"
 preserveAspectRatio="xMidYMid meet">

<g transform="translate(0.000000,1640.000000) scale(0.100000,-0.100000)"
fill="#000000" stroke="none">
<path d="M6730 12714 c-58 -2 -240 -11 -405 -20 -165 -9 -357 -18 -428 -19
-115 -3 -250 -19 -392 -46 -27 -6 -59 -10 -69 -10 -57 0 -214 -43 -311 -84
-60 -26 -163 -65 -229 -87 -132 -43 -184 -67 -236 -109 -19 -15 -83 -54 -142
-86 -109 -59 -327 -222 -389 -290 -19 -21 -60 -61 -92 -89 -83 -76 -264 -308
-304 -390 -19 -39 -56 -97 -82 -130 -48 -60 -86 -141 -116 -249 -25 -90 -35
-115 -71 -171 -39 -60 -72 -141 -79 -189 -2 -19 -8 -60 -13 -92 -6 -32 -16
-98 -22 -148 -7 -49 -17 -108 -22 -130 -5 -22 -11 -53 -13 -70 -5 -40 -11 -70
-34 -195 -28 -148 -58 -488 -72 -800 -16 -372 -16 -2925 0 -3235 13 -252 54
-660 71 -715 6 -19 13 -48 15 -65 2 -16 6 -43 9 -60 3 -16 17 -102 30 -190 26
-171 53 -335 61 -373 2 -13 28 -70 58 -125 29 -56 71 -155 92 -220 30 -95 51
-137 101 -213 35 -52 78 -122 95 -156 17 -35 58 -91 90 -126 33 -34 68 -80 79
-101 11 -22 41 -57 66 -78 26 -21 65 -60 86 -87 21 -27 68 -70 103 -97 36 -27
79 -64 96 -84 18 -20 64 -54 103 -77 39 -22 87 -52 106 -67 102 -77 229 -143
270 -140 27 2 49 -7 220 -86 114 -53 232 -91 250 -80 5 3 12 0 15 -6 4 -5 13
-8 21 -5 7 3 16 1 20 -5 3 -5 13 -9 22 -8 10 1 25 -1 35 -6 9 -4 24 -4 33 -1
9 4 23 1 30 -5 8 -6 33 -13 57 -14 23 -1 49 -5 57 -8 25 -10 231 -55 305 -66
116 -18 318 -32 533 -37 112 -3 211 -8 219 -11 9 -3 159 -3 333 1 216 4 320 3
325 -4 8 -13 2151 -14 2160 -1 3 6 114 7 279 4 150 -3 282 -3 292 2 11 4 53 6
95 5 104 -2 495 28 604 46 86 14 193 38 225 50 8 4 34 8 58 10 24 2 48 7 55
11 7 4 19 6 29 5 9 -2 19 2 23 7 3 6 19 8 34 5 16 -3 32 -1 35 5 4 5 13 8 21
4 9 -3 21 0 29 6 7 6 16 8 19 4 4 -3 13 -1 20 6 8 6 21 9 30 5 8 -3 18 -1 21
5 4 6 13 8 21 5 7 -3 24 0 37 7 13 7 25 14 28 14 29 4 82 24 170 64 153 70
163 74 183 78 31 6 114 51 223 123 58 39 115 70 125 70 31 0 70 24 114 70 22
23 63 58 90 78 28 20 68 56 90 81 22 25 69 72 104 106 34 33 71 76 81 95 10
19 41 58 70 85 32 31 66 80 91 130 22 44 48 89 58 100 52 57 103 156 140 271
22 68 56 152 76 186 42 71 75 150 80 190 2 15 9 36 14 46 6 11 8 22 5 25 -3 2
0 33 5 68 6 35 20 131 31 213 12 83 26 158 31 168 23 42 66 313 84 523 25 295
38 1733 26 2845 -6 531 -16 1019 -21 1085 -22 274 -42 422 -71 528 -12 40 -23
83 -25 97 -2 14 -10 57 -18 96 -8 38 -22 125 -31 192 -25 196 -57 298 -124
397 -11 16 -41 94 -67 173 -41 126 -52 151 -96 204 -28 33 -68 97 -90 142 -22
45 -70 117 -107 161 -37 44 -85 104 -105 133 -21 28 -44 56 -52 60 -8 5 -59
51 -113 103 -138 134 -284 245 -405 310 -57 31 -121 69 -143 86 -46 36 -125
71 -254 111 -53 17 -140 49 -194 72 -127 54 -171 65 -395 100 -300 47 -353 52
-610 55 -135 2 -310 9 -390 15 -134 10 -2904 22 -3180 14z m1685 -860 c925 -4
1306 -9 1535 -21 168 -9 350 -18 405 -20 55 -2 120 -6 145 -9 25 -2 56 -4 70
-4 50 -1 234 -31 245 -40 7 -5 15 -7 18 -4 7 7 134 -13 202 -32 28 -8 100 -37
160 -65 61 -28 145 -68 189 -88 48 -22 104 -59 145 -95 36 -32 89 -73 116 -91
28 -18 73 -58 100 -89 28 -31 89 -98 136 -149 70 -75 96 -114 147 -213 33 -66
79 -142 101 -169 21 -26 41 -57 44 -69 2 -11 14 -61 25 -111 11 -49 23 -110
26 -135 2 -25 9 -59 14 -77 6 -17 8 -34 5 -37 -7 -7 10 -93 45 -236 27 -112
48 -293 56 -480 3 -63 8 -155 11 -205 3 -49 5 -646 4 -1325 -1 -745 2 -1243 7
-1255 9 -19 1 -593 -12 -845 -2 -58 -7 -152 -9 -210 -7 -166 -30 -347 -57
-445 -27 -98 -49 -200 -54 -255 -17 -181 -63 -336 -118 -400 -16 -19 -50 -78
-74 -130 -32 -69 -61 -113 -106 -161 -33 -36 -73 -81 -88 -101 -15 -20 -92
-97 -172 -171 -112 -105 -160 -143 -213 -168 -37 -17 -91 -47 -120 -65 -67
-43 -138 -77 -188 -92 -61 -18 -253 -63 -262 -61 -4 1 -15 -1 -23 -4 -16 -7
-173 -50 -225 -62 -204 -47 -671 -59 -2340 -60 -1500 0 -1619 1 -1990 16 -278
11 -471 26 -545 44 -58 13 -204 53 -230 63 -8 3 -19 6 -25 6 -87 11 -287 62
-327 82 -18 9 -65 39 -103 65 -39 26 -99 61 -133 77 -85 41 -299 237 -474 437
-60 68 -82 101 -98 149 -11 34 -41 93 -65 131 -70 108 -92 162 -110 265 -15
94 -25 171 -26 200 0 8 -16 96 -34 195 -44 231 -63 359 -70 465 -2 47 -7 119
-11 160 -3 41 -8 149 -11 240 -8 233 -8 2937 0 3100 4 74 9 182 13 240 3 58 7
148 8 200 2 53 6 104 9 115 4 11 11 47 16 80 9 62 30 167 57 291 9 39 18 87
20 105 2 19 6 48 9 64 2 17 7 52 10 79 3 27 16 92 30 144 19 72 33 104 58 131
18 20 59 90 92 156 49 97 74 135 136 200 42 44 89 100 106 125 37 54 107 118
199 183 38 26 92 65 119 87 28 23 79 54 115 71 36 17 101 49 146 70 130 62
233 100 282 105 97 9 117 12 132 17 19 7 217 35 250 36 14 0 43 3 65 6 22 3
59 6 83 5 24 0 143 6 264 15 121 8 347 18 502 21 154 4 288 11 296 16 8 5 38
6 65 3 28 -3 604 -7 1280 -11z"/>
<path d="M10815 10950 c-57 -8 -196 -54 -248 -82 -33 -18 -140 -145 -167 -198
-33 -65 -48 -125 -55 -230 -7 -105 11 -224 46 -291 28 -55 158 -198 199 -219
177 -89 384 -95 556 -14 119 56 183 136 215 271 6 27 23 71 36 98 35 69 33
153 -7 255 -16 41 -40 109 -55 151 -31 90 -75 138 -175 192 -58 32 -233 80
-272 76 -7 -1 -40 -5 -73 -9z"/>
<path d="M7935 10264 c-35 -14 -111 -31 -170 -39 -11 -1 -33 -8 -49 -14 -16
-6 -36 -11 -45 -10 -9 1 -29 -3 -44 -9 -16 -7 -33 -12 -39 -12 -7 0 -68 -14
-137 -31 -98 -24 -149 -44 -231 -87 -58 -31 -136 -71 -175 -88 -114 -50 -158
-74 -205 -113 -25 -20 -74 -54 -110 -76 -110 -66 -160 -107 -298 -244 -138
-138 -188 -198 -241 -292 -17 -31 -53 -81 -79 -111 -35 -39 -63 -89 -101 -179
-29 -68 -65 -140 -80 -159 -52 -65 -77 -133 -109 -292 -11 -53 -23 -102 -27
-108 -4 -6 -9 -30 -12 -52 -2 -23 -10 -53 -18 -67 -28 -56 -76 -220 -85 -296
-15 -118 -13 -414 4 -530 9 -62 28 -136 51 -195 42 -109 57 -165 84 -305 11
-55 27 -119 35 -142 8 -24 13 -43 10 -43 -10 0 47 -93 81 -132 17 -20 41 -67
54 -105 36 -105 79 -183 131 -239 26 -28 59 -73 73 -100 33 -65 71 -101 90
-85 12 9 24 0 66 -46 28 -32 55 -61 59 -65 4 -4 48 -44 97 -91 50 -46 112 -96
138 -111 26 -15 74 -48 105 -74 66 -54 154 -107 232 -142 30 -13 78 -39 107
-57 87 -57 200 -100 388 -148 99 -25 198 -52 220 -60 109 -40 212 -50 500 -50
305 0 372 8 565 65 52 15 136 37 185 49 149 37 271 80 332 119 32 21 114 65
183 99 74 37 149 83 185 113 33 28 78 61 100 72 37 19 127 99 262 231 42 41
54 48 66 39 11 -10 23 -3 60 37 25 26 55 68 67 91 12 24 44 66 70 94 50 53 93
131 134 239 13 35 41 86 62 113 57 75 81 137 115 300 17 82 42 176 56 209 81
196 105 326 105 580 0 254 -22 407 -78 539 -45 106 -53 132 -79 258 -34 167
-58 235 -107 305 -38 53 -63 102 -128 250 -13 29 -38 67 -57 85 -18 18 -63 80
-99 138 -47 77 -93 133 -162 202 -178 176 -246 234 -342 293 -52 32 -111 71
-130 88 -19 17 -77 50 -130 74 -52 24 -158 75 -235 114 -114 57 -162 74 -255
95 -63 14 -144 27 -180 29 -92 5 -237 30 -254 44 -8 7 -25 9 -40 5 -14 -3 -34
-3 -43 2 -10 4 -85 6 -166 5 -121 -3 -151 0 -165 12 -25 23 -119 28 -167 11z
m455 -840 c41 -8 84 -16 95 -18 37 -6 210 -54 240 -67 17 -6 39 -13 50 -15 11
-1 34 -8 50 -15 17 -7 33 -12 37 -11 16 3 104 -41 171 -86 40 -26 101 -65 137
-87 97 -58 310 -263 376 -362 30 -45 74 -105 98 -135 55 -68 77 -111 117 -233
17 -55 52 -144 76 -198 60 -133 74 -221 75 -472 1 -243 -19 -357 -81 -479 -21
-42 -44 -83 -51 -91 -6 -8 -9 -19 -5 -25 4 -6 -3 -22 -15 -35 -13 -14 -20 -31
-17 -39 12 -32 -32 -130 -79 -174 -34 -33 -42 -47 -34 -57 7 -9 6 -16 -6 -26
-9 -7 -34 -39 -56 -72 -52 -76 -246 -272 -323 -326 -33 -23 -84 -61 -114 -86
-30 -24 -89 -57 -130 -74 -42 -16 -89 -35 -106 -42 -16 -7 -34 -13 -40 -14 -5
-2 -50 -21 -100 -43 -54 -24 -126 -47 -180 -57 -49 -9 -101 -19 -115 -22 -62
-14 -334 -20 -420 -8 -25 3 -63 7 -85 10 -103 13 -214 45 -311 90 -44 21 -83
38 -89 39 -5 1 -57 21 -114 46 -87 37 -110 52 -145 93 -22 27 -77 73 -121 102
-44 29 -100 77 -125 107 -24 29 -66 73 -92 97 -27 24 -66 74 -89 112 -22 38
-61 93 -87 123 -39 44 -54 73 -80 153 -17 54 -34 112 -38 128 -4 17 -23 64
-42 105 -75 161 -99 329 -82 582 10 160 25 227 75 338 46 104 95 269 88 301
-5 29 9 57 68 129 20 25 67 91 103 147 48 74 81 113 119 142 29 21 76 66 105
99 29 33 78 75 109 94 32 19 110 68 173 108 108 69 187 106 198 95 3 -3 10 -1
16 4 6 5 56 22 111 39 55 16 120 36 145 43 25 7 54 14 65 16 11 1 56 11 100
21 99 24 269 27 375 6z"/>
</g>
</svg>
