<?xml version="1.0" standalone="no"?>
<!DOCTYPE svg PUBLIC "-//W3C//DTD SVG 20010904//EN"
 "http://www.w3.org/TR/2001/REC-SVG-20010904/DTD/svg10.dtd">
<svg version="1.0" xmlns="http://www.w3.org/2000/svg"
 width="1640.000000pt" height="1640.000000pt" viewBox="0 0 1640.000000 1640.000000"
 preserveAspectRatio="xMidYMid meet">

<g transform="translate(0.000000,1640.000000) scale(0.100000,-0.100000)"
fill="#000000" stroke="none">
<path d="M7825 12677 c-88 -4 -167 -10 -175 -13 -8 -3 -33 -7 -55 -9 -94 -7
-313 -49 -376 -73 -14 -6 -73 -20 -130 -32 -159 -33 -339 -90 -365 -115 -7 -6
-61 -24 -120 -40 -146 -38 -285 -88 -337 -119 -23 -15 -49 -30 -57 -36 -8 -5
-48 -21 -88 -37 -40 -15 -83 -37 -96 -48 -12 -11 -44 -31 -71 -45 -26 -14 -56
-32 -66 -41 -9 -9 -47 -27 -84 -39 -46 -15 -80 -35 -107 -61 -22 -22 -48 -39
-58 -39 -10 0 -20 -4 -22 -8 -4 -11 -86 -65 -120 -80 -16 -6 -28 -16 -28 -22
0 -5 -4 -10 -8 -10 -4 0 -33 -24 -63 -52 -30 -29 -76 -63 -102 -76 -26 -13
-47 -29 -47 -36 0 -14 -81 -83 -124 -106 -17 -9 -64 -49 -105 -88 -41 -40 -78
-72 -84 -72 -16 0 -139 -132 -182 -195 -22 -33 -67 -89 -101 -125 -33 -36 -71
-83 -84 -105 -13 -22 -50 -69 -81 -105 -75 -85 -121 -143 -164 -207 -19 -29
-43 -57 -53 -62 -10 -5 -27 -28 -38 -50 -10 -23 -22 -41 -26 -41 -5 0 -8 -8
-8 -18 0 -11 -9 -27 -20 -37 -10 -9 -28 -35 -40 -57 -11 -21 -25 -45 -31 -51
-17 -19 -71 -125 -123 -238 -14 -31 -32 -62 -41 -69 -8 -7 -15 -18 -15 -24 0
-6 -9 -19 -20 -29 -11 -9 -20 -26 -20 -37 0 -11 -22 -64 -50 -117 -27 -53 -50
-102 -50 -109 0 -7 -11 -34 -24 -61 -14 -26 -30 -70 -37 -98 -6 -27 -19 -66
-28 -85 -9 -19 -30 -75 -46 -125 -15 -49 -37 -109 -47 -133 -10 -23 -25 -71
-32 -105 -7 -34 -27 -116 -44 -182 -51 -205 -58 -246 -93 -530 -19 -153 -23
-241 -26 -580 -4 -448 7 -611 57 -875 5 -30 14 -82 19 -115 17 -109 49 -238
68 -275 7 -14 13 -34 13 -45 0 -11 14 -63 30 -115 16 -52 30 -106 30 -118 0
-13 8 -36 19 -50 28 -41 71 -136 71 -160 0 -28 17 -70 35 -88 8 -9 15 -27 15
-42 0 -15 7 -36 15 -46 8 -11 15 -26 15 -33 0 -24 138 -293 151 -293 4 0 14
-19 21 -42 7 -24 36 -86 65 -138 29 -52 53 -99 53 -104 0 -4 15 -29 34 -55 18
-25 41 -62 51 -81 10 -19 31 -48 46 -64 16 -17 29 -35 29 -42 0 -31 59 -135
107 -189 29 -33 53 -66 53 -73 0 -7 18 -32 41 -56 22 -25 57 -67 77 -94 108
-146 257 -300 484 -502 192 -172 231 -205 277 -233 26 -16 62 -44 81 -62 19
-18 73 -56 120 -86 47 -29 110 -71 140 -94 119 -89 338 -216 440 -254 30 -12
71 -30 92 -41 71 -39 255 -1 260 53 1 12 2 220 2 462 1 410 3 450 24 580 13
77 27 156 32 175 5 19 14 62 21 95 6 33 22 103 34 155 13 52 28 127 34 165 6
39 22 117 35 175 14 58 37 159 51 225 15 66 35 152 46 190 10 39 30 115 44
170 13 55 31 127 39 160 19 74 63 286 71 340 4 22 17 76 30 120 14 44 34 123
45 175 11 52 26 124 34 159 41 178 41 389 1 566 -39 174 -56 328 -56 511 1
224 25 386 77 501 8 17 14 36 14 43 0 22 93 204 141 275 56 83 247 274 339
338 76 53 123 72 240 98 98 21 182 24 213 7 12 -6 49 -13 82 -14 103 -3 173
-43 297 -167 59 -58 110 -116 113 -129 4 -13 13 -30 20 -38 47 -54 105 -280
105 -410 0 -72 -30 -286 -59 -425 -28 -133 -107 -433 -129 -490 -10 -27 -27
-84 -37 -125 -9 -41 -37 -138 -60 -215 -61 -199 -72 -239 -89 -340 -21 -128
-38 -342 -30 -389 24 -149 212 -340 374 -379 41 -10 93 -23 116 -29 23 -5 54
-9 70 -7 16 1 40 -3 54 -10 25 -12 91 -8 302 18 133 16 247 48 308 86 19 12
51 27 71 34 19 6 51 28 70 47 19 20 63 56 99 80 36 23 81 64 100 90 19 26 71
84 114 129 74 78 116 148 116 196 0 8 14 28 31 45 32 29 99 160 99 192 0 9 7
28 15 42 38 67 59 119 66 160 15 96 60 319 79 396 11 45 20 104 20 130 0 27 7
85 14 129 19 103 12 594 -9 735 -17 112 -55 264 -83 335 -47 115 -62 159 -62
179 0 12 -6 30 -14 41 -27 38 -116 198 -116 207 0 6 -30 42 -66 82 -37 39 -77
88 -90 108 -13 20 -40 49 -61 65 -20 15 -64 53 -97 84 -108 98 -123 108 -351
223 -313 157 -592 210 -1065 202 -270 -5 -479 -29 -565 -65 -11 -5 -38 -14
-60 -20 -119 -32 -191 -55 -200 -61 -5 -4 -21 -11 -35 -15 -81 -23 -373 -185
-454 -251 -17 -14 -49 -39 -71 -56 -65 -49 -262 -268 -297 -332 -18 -32 -52
-82 -75 -112 -24 -30 -43 -56 -43 -60 0 -3 -9 -19 -20 -34 -44 -62 -138 -259
-144 -304 -4 -27 -12 -60 -18 -75 -6 -14 -16 -39 -23 -56 -47 -112 -75 -346
-75 -605 1 -179 23 -351 70 -540 6 -25 16 -67 22 -95 5 -27 23 -70 39 -94 15
-24 34 -59 40 -79 7 -20 28 -61 48 -90 76 -115 90 -143 101 -204 29 -168 30
-176 20 -203 -5 -14 -10 -57 -10 -95 0 -86 -43 -264 -75 -305 -59 -78 -131
-141 -175 -154 -88 -25 -125 -25 -177 2 -26 14 -60 31 -75 38 -44 20 -219 178
-327 295 -68 73 -110 129 -132 173 -18 36 -44 81 -58 98 -14 18 -38 48 -53 67
-16 18 -28 39 -28 45 0 6 -18 41 -40 77 -22 36 -40 71 -40 76 0 5 -6 24 -13
41 -8 18 -21 55 -31 82 -32 92 -43 116 -54 127 -7 7 -12 21 -12 33 0 12 -12
50 -26 86 -47 117 -88 485 -81 731 7 231 52 621 77 669 6 10 15 41 21 71 6 29
15 58 19 63 4 6 15 37 25 70 9 33 22 69 29 80 12 20 27 66 45 137 5 20 39 87
76 148 36 62 75 132 86 157 11 25 33 66 49 90 17 24 30 47 30 51 0 11 108 153
154 202 23 25 55 65 72 89 29 44 362 381 376 381 4 0 42 28 85 63 43 35 101
76 128 92 28 16 89 54 136 85 47 30 139 82 205 114 65 32 135 67 154 78 99 55
206 98 304 122 60 15 122 34 138 42 35 18 128 46 223 68 317 71 874 114 1133
87 274 -28 472 -55 555 -76 34 -9 107 -27 162 -41 55 -14 118 -34 140 -44 22
-11 74 -29 114 -41 41 -12 117 -44 168 -71 112 -58 110 -57 198 -98 117 -56
207 -111 264 -162 30 -26 60 -48 67 -48 6 0 34 -19 60 -43 27 -24 76 -62 109
-84 62 -42 331 -313 420 -423 101 -125 146 -186 176 -245 17 -33 39 -69 48
-80 10 -11 31 -42 47 -69 16 -27 37 -63 48 -80 10 -17 25 -49 33 -71 7 -21 20
-46 27 -55 8 -8 35 -77 61 -153 25 -76 51 -150 57 -165 6 -15 14 -36 19 -47 4
-11 10 -33 12 -50 3 -16 15 -64 27 -105 22 -76 51 -257 71 -430 17 -155 13
-387 -10 -565 -11 -88 -25 -194 -30 -235 -10 -77 -49 -257 -69 -320 -6 -19
-25 -87 -43 -150 -34 -126 -68 -227 -98 -294 -11 -23 -26 -60 -34 -82 -42
-113 -110 -247 -148 -289 -10 -11 -25 -39 -33 -62 -8 -23 -39 -76 -68 -118
-29 -42 -60 -86 -68 -98 -61 -89 -143 -186 -287 -339 -91 -98 -169 -178 -173
-178 -4 0 -53 -38 -110 -85 -56 -47 -115 -92 -129 -99 -14 -8 -35 -23 -45 -35
-11 -12 -27 -21 -36 -21 -10 0 -23 -7 -30 -15 -7 -8 -20 -15 -29 -15 -9 0 -43
-19 -76 -42 -87 -60 -171 -108 -190 -108 -9 0 -42 -13 -73 -28 -31 -15 -86
-36 -122 -46 -36 -9 -105 -30 -155 -46 -227 -72 -506 -117 -648 -105 -110 9
-317 65 -381 104 -17 10 -49 21 -70 24 -43 7 -155 60 -226 107 -25 16 -61 38
-80 47 -19 10 -63 37 -98 60 -56 38 -70 43 -121 43 -36 0 -63 -5 -69 -13 -12
-14 -35 -91 -56 -187 -7 -30 -18 -65 -24 -76 -6 -12 -16 -46 -21 -75 -5 -30
-19 -97 -31 -149 -11 -52 -23 -107 -27 -123 -3 -15 -10 -30 -14 -33 -5 -3 -9
-16 -9 -28 0 -13 -11 -59 -25 -102 -14 -44 -33 -104 -42 -134 -8 -30 -21 -71
-28 -90 -7 -19 -18 -55 -25 -80 -7 -25 -18 -61 -25 -80 -7 -19 -23 -62 -35
-95 -24 -66 -57 -137 -95 -205 -14 -25 -50 -98 -80 -163 -30 -65 -63 -130 -73
-145 -11 -15 -27 -49 -38 -77 -10 -27 -35 -74 -56 -104 -21 -30 -38 -64 -38
-76 0 -13 -7 -28 -15 -35 -19 -16 -28 -85 -18 -134 8 -35 16 -43 69 -73 186
-102 392 -138 877 -155 274 -9 364 -9 475 2 75 7 220 16 322 21 303 12 515 41
590 79 97 49 360 123 401 113 10 -3 19 0 19 6 0 6 12 11 28 11 31 0 96 21 150
49 21 10 100 37 177 60 96 29 167 57 225 90 47 27 119 66 160 86 41 20 125 65
185 100 61 34 148 84 195 109 99 55 254 161 331 226 30 25 72 59 94 74 22 16
58 46 80 67 22 20 78 60 125 87 83 49 212 153 274 221 17 18 61 65 99 104 37
39 67 77 67 85 0 8 21 38 48 67 26 29 65 75 87 104 22 29 71 87 108 129 38 42
77 93 87 113 10 19 26 42 35 49 9 8 32 45 52 84 19 38 41 76 49 83 22 22 62
95 70 126 3 16 13 31 20 34 19 7 102 166 110 211 4 20 24 65 46 100 21 34 38
66 38 70 0 12 70 144 90 170 11 14 20 33 20 42 0 10 7 23 15 30 8 7 20 31 26
54 21 74 90 280 102 301 20 35 37 89 37 118 0 15 9 47 21 70 29 59 90 250 87
273 -2 11 5 55 15 99 33 151 36 181 57 460 36 500 36 478 16 840 -22 419 -43
634 -71 725 -8 25 -17 68 -21 95 -3 28 -11 55 -16 62 -5 6 -11 33 -14 60 -5
57 -22 113 -34 113 -5 0 -11 15 -15 33 -16 77 -49 175 -70 207 -12 19 -26 55
-29 80 -4 25 -27 98 -51 162 -25 65 -45 123 -45 131 0 7 -10 31 -21 52 -12 22
-32 60 -44 85 -13 25 -37 63 -54 84 -17 22 -34 51 -38 65 -8 33 -53 124 -65
132 -10 6 -20 25 -93 166 -22 43 -43 80 -47 81 -5 2 -8 9 -8 16 0 7 -11 23
-25 36 -14 13 -25 28 -25 34 0 25 -232 338 -267 359 -7 4 -13 14 -13 21 0 8
-7 16 -15 20 -8 3 -15 14 -15 24 0 27 -55 99 -92 122 -35 21 -198 207 -198
225 0 14 -62 75 -77 75 -6 0 -42 30 -80 66 -37 37 -79 71 -93 78 -14 6 -34 19
-45 29 -11 10 -37 34 -59 53 -21 20 -54 42 -73 50 -43 18 -224 156 -241 183
-7 12 -17 21 -23 21 -9 0 -120 68 -145 88 -6 5 -20 13 -32 16 -12 4 -22 12
-22 17 0 5 -6 9 -13 9 -7 0 -22 10 -34 23 -11 13 -51 36 -89 51 -97 39 -154
67 -154 77 0 5 -7 9 -15 9 -8 0 -15 5 -15 10 0 6 -7 10 -15 10 -8 0 -15 4 -15
10 0 11 -63 44 -102 54 -16 3 -28 11 -28 16 0 6 -8 10 -18 10 -21 0 -84 28
-93 42 -10 15 -123 65 -209 93 -47 15 -92 31 -101 35 -9 5 -37 11 -63 15 -25
4 -49 11 -52 16 -3 5 -13 9 -23 9 -10 0 -34 11 -53 23 -19 13 -45 27 -59 30
-13 3 -60 14 -104 25 -102 26 -283 70 -360 89 -33 7 -98 20 -145 28 -47 8
-107 19 -135 25 -90 19 -926 31 -1210 17z"/>
</g>
</svg>
