<?xml version="1.0" standalone="no"?>
<!DOCTYPE svg PUBLIC "-//W3C//DTD SVG 20010904//EN"
 "http://www.w3.org/TR/2001/REC-SVG-20010904/DTD/svg10.dtd">
<svg version="1.0" xmlns="http://www.w3.org/2000/svg"
 width="1640.000000pt" height="1640.000000pt" viewBox="0 0 1640.000000 1640.000000"
 preserveAspectRatio="xMidYMid meet">

<g transform="translate(0.000000,1640.000000) scale(0.100000,-0.100000)"
fill="#000000" stroke="none">
<path d="M8218 12475 c-2 -2 -57 -5 -123 -6 -66 -1 -128 -6 -137 -11 -9 -4
-57 -10 -106 -12 -49 -3 -107 -9 -128 -15 -22 -6 -104 -15 -184 -21 -191 -15
-209 -17 -315 -42 -49 -12 -103 -22 -120 -23 -16 -1 -48 -10 -70 -20 -22 -10
-65 -28 -95 -42 -31 -13 -60 -23 -65 -21 -10 3 -63 -12 -204 -58 -41 -13 -76
-22 -79 -20 -2 3 -11 -1 -19 -9 -8 -8 -26 -18 -41 -21 -64 -13 -186 -67 -469
-205 -166 -82 -304 -153 -307 -158 -4 -5 -53 -35 -110 -65 -58 -31 -123 -72
-147 -92 -23 -19 -51 -40 -63 -46 -12 -6 -32 -21 -46 -33 -26 -24 -87 -67
-155 -112 -22 -14 -87 -71 -145 -127 -58 -57 -121 -112 -140 -124 -39 -23
-287 -280 -345 -357 -21 -27 -63 -77 -94 -111 -31 -33 -75 -87 -99 -121 -23
-33 -52 -68 -63 -79 -12 -10 -53 -66 -91 -124 -39 -58 -88 -128 -109 -156 -21
-28 -50 -81 -63 -118 -14 -38 -43 -98 -64 -135 -22 -36 -60 -109 -86 -161 -26
-52 -62 -120 -79 -150 -18 -30 -38 -71 -44 -90 -38 -118 -99 -286 -128 -355
-19 -44 -39 -98 -44 -120 -24 -96 -35 -135 -57 -205 -13 -42 -24 -84 -24 -94
0 -10 -16 -66 -36 -125 -26 -79 -38 -135 -45 -221 -6 -63 -15 -126 -20 -140
-30 -71 -29 -1352 0 -1408 5 -10 14 -71 21 -136 6 -66 20 -141 30 -166 10 -25
19 -64 21 -85 2 -22 12 -60 22 -85 11 -25 21 -56 23 -70 4 -34 30 -136 38
-148 3 -6 13 -48 22 -94 9 -45 24 -96 34 -113 20 -33 67 -163 106 -294 13 -46
38 -109 54 -140 17 -31 30 -63 30 -73 0 -9 16 -35 35 -58 19 -23 35 -47 35
-53 0 -6 6 -18 14 -26 8 -9 57 -101 111 -205 108 -211 116 -226 160 -277 16
-20 39 -51 50 -69 46 -77 27 -53 210 -273 34 -39 73 -90 88 -112 15 -23 68
-85 117 -139 50 -54 97 -111 105 -125 25 -48 273 -270 480 -429 336 -258 370
-282 400 -282 11 0 35 -10 54 -23 66 -43 197 -118 276 -157 44 -22 95 -50 112
-61 18 -11 51 -22 72 -23 24 -1 52 -12 74 -29 39 -30 235 -119 267 -122 3 0
33 -13 68 -28 34 -16 84 -32 110 -37 26 -4 61 -12 77 -18 114 -38 162 -52 178
-52 10 0 39 -8 65 -18 179 -71 242 -82 752 -137 264 -29 1010 -18 1142 16 20
5 91 14 157 19 67 5 126 12 133 17 7 4 36 11 63 15 78 11 104 18 195 53 47 19
103 37 125 41 22 3 47 10 56 15 9 5 45 15 80 23 110 26 200 54 309 97 58 22
127 49 154 60 27 10 56 25 66 34 9 9 66 37 126 64 115 50 229 108 329 166 33
19 86 48 117 64 31 17 59 35 63 41 4 6 34 24 68 40 68 33 133 80 252 180 42
36 89 71 104 79 14 7 51 37 81 65 30 28 86 76 125 106 111 88 294 271 325 325
16 28 71 95 123 150 51 55 106 118 120 140 15 22 34 51 44 65 9 14 48 57 85
96 37 40 76 89 86 110 26 57 92 173 103 179 4 3 26 44 49 91 22 47 53 101 70
120 16 19 30 41 30 48 0 8 6 19 14 25 8 7 29 47 46 89 17 42 43 100 57 127 14
28 40 79 58 115 19 36 52 119 76 185 23 66 54 156 70 200 15 44 35 112 44 150
50 214 90 369 100 385 3 4 8 30 11 56 3 27 12 64 20 84 22 50 37 137 35 195
-1 28 6 71 15 95 14 39 17 110 20 555 3 485 -3 686 -25 820 -6 33 -14 87 -19
120 -5 33 -19 87 -30 120 -11 33 -28 87 -37 120 -9 33 -23 78 -30 100 -8 22
-17 58 -21 80 -14 79 -55 229 -68 250 -7 11 -19 47 -26 80 -7 33 -21 76 -32
95 -10 19 -27 62 -37 95 -21 67 -56 144 -98 220 -16 28 -39 77 -52 110 -26 67
-118 242 -130 250 -5 2 -46 80 -91 172 -93 186 -98 194 -190 297 -36 40 -87
106 -115 146 -27 40 -75 100 -105 134 -31 34 -76 86 -102 116 -64 77 -307 319
-342 341 -16 9 -77 62 -135 116 -58 55 -131 113 -161 130 -30 18 -71 48 -90
68 -42 44 -116 100 -185 140 -27 15 -53 33 -57 39 -4 6 -8 7 -8 3 0 -9 -161
75 -197 103 -14 11 -30 20 -35 20 -5 0 -33 16 -62 35 -99 65 -596 293 -678
310 -18 4 -60 17 -93 30 -33 12 -96 30 -140 40 -44 10 -105 28 -134 42 -30 13
-60 22 -67 19 -6 -2 -32 6 -57 19 -24 13 -47 22 -49 20 -3 -3 -33 4 -68 16
-35 11 -98 24 -139 29 -42 5 -112 13 -156 19 -162 21 -288 31 -376 31 -50 0
-100 5 -112 12 -12 6 -41 10 -65 9 -23 -1 -47 1 -52 4 -10 6 -226 16 -232 10z
m2132 -2859 c113 -22 154 -49 211 -141 38 -63 47 -85 58 -156 14 -83 14 -180
0 -289 -6 -47 -12 -113 -13 -146 -2 -34 -6 -66 -10 -72 -4 -6 -9 -58 -12 -114
-3 -57 -9 -112 -14 -123 -4 -11 -16 -114 -24 -230 -9 -115 -19 -226 -21 -245
-10 -85 -75 -400 -87 -423 -5 -10 -12 -47 -15 -83 -3 -35 -10 -67 -14 -70 -5
-3 -9 -20 -9 -39 0 -19 -4 -45 -10 -59 -5 -14 -12 -67 -16 -118 -4 -51 -11
-98 -15 -104 -5 -6 -12 -47 -15 -90 -3 -43 -10 -88 -15 -99 -13 -29 -39 -164
-39 -202 0 -17 -4 -34 -9 -37 -5 -4 -12 -45 -16 -94 -4 -48 -11 -91 -15 -97
-7 -10 -24 -120 -40 -270 -13 -122 -31 -238 -41 -260 -4 -11 -15 -60 -24 -110
-9 -49 -23 -112 -31 -139 -8 -26 -14 -63 -14 -82 0 -18 -4 -35 -9 -38 -5 -3
-11 -23 -14 -43 -9 -58 -32 -155 -45 -186 -7 -16 -12 -33 -12 -38 0 -17 -88
-143 -144 -205 -66 -74 -137 -112 -225 -123 -63 -8 -176 4 -226 23 -106 41
-173 74 -205 103 -19 16 -53 39 -75 50 -52 27 -115 61 -193 106 -35 21 -67 37
-71 37 -4 0 -33 18 -65 40 -31 22 -60 40 -63 40 -4 0 -28 18 -54 40 -26 22
-52 40 -58 40 -5 0 -22 11 -38 24 -16 13 -48 34 -71 46 -23 12 -64 41 -90 64
-26 24 -78 63 -117 89 -201 133 -296 203 -417 307 -185 160 -296 274 -342 350
-32 55 -39 76 -43 136 -5 66 -3 78 28 145 19 41 59 108 90 149 77 104 329 372
425 452 43 37 108 96 144 133 36 37 92 88 125 115 136 111 540 533 567 593 22
49 22 54 1 34 -10 -8 -62 -36 -117 -61 -101 -47 -165 -89 -249 -164 -26 -23
-101 -69 -165 -101 -89 -45 -126 -70 -153 -103 -22 -25 -70 -62 -120 -91 -46
-26 -141 -85 -211 -130 -184 -119 -216 -139 -269 -168 -26 -14 -96 -58 -154
-98 -59 -39 -110 -71 -114 -71 -4 0 -25 -15 -47 -33 -21 -19 -52 -37 -68 -41
-16 -4 -43 -18 -61 -32 -17 -13 -35 -24 -40 -24 -4 0 -27 -15 -50 -34 -23 -19
-54 -38 -68 -41 -14 -4 -43 -22 -65 -41 -22 -19 -43 -34 -47 -34 -3 0 -31 -12
-60 -26 -30 -14 -71 -28 -92 -31 -21 -3 -57 -11 -80 -19 -54 -17 -261 -20
-373 -4 -48 6 -90 10 -95 9 -14 -4 -216 38 -250 52 -11 4 -38 11 -60 15 -22 4
-42 8 -45 9 -3 1 -20 5 -38 9 -18 4 -45 14 -60 22 -15 8 -34 14 -42 14 -9 0
-20 4 -25 8 -6 5 -48 23 -95 41 -47 18 -89 36 -95 41 -5 4 -25 10 -44 14 -53
10 -115 51 -165 109 -47 56 -60 82 -76 154 -10 41 -8 48 20 89 16 25 30 49 30
53 0 21 132 148 176 170 27 13 60 32 74 41 14 9 38 20 55 24 16 4 52 18 80 31
154 71 185 85 196 85 6 0 23 8 37 18 35 24 92 52 107 52 6 0 33 11 61 24 79
39 115 53 179 72 33 9 65 20 70 24 6 4 24 10 40 14 17 4 46 22 65 41 19 18 71
52 115 76 44 23 85 46 91 50 6 5 30 15 53 23 23 9 56 21 74 29 17 8 59 22 91
33 33 10 71 28 85 40 15 12 37 25 51 29 14 4 32 13 40 20 8 6 40 21 70 33 30
12 69 27 85 33 17 7 48 18 70 25 79 24 172 60 206 81 19 11 45 24 59 28 14 4
57 23 95 43 89 44 102 49 144 57 33 7 98 33 196 80 28 13 73 31 100 41 28 10
55 21 60 24 6 4 24 10 40 14 17 4 44 17 60 29 35 26 60 38 130 62 28 10 78 31
112 46 34 16 68 29 76 29 7 0 17 4 23 8 5 5 25 15 44 22 50 19 100 39 135 55
17 8 44 17 60 21 17 4 54 20 84 35 30 16 60 29 67 29 22 0 133 40 209 75 39
18 81 36 95 40 14 4 30 11 35 15 6 4 26 11 45 15 19 4 53 15 75 25 22 10 58
26 80 35 22 9 58 25 80 35 22 10 54 21 70 25 17 3 44 12 60 19 17 7 57 21 90
31 33 9 80 27 105 38 39 18 164 50 305 77 59 11 112 10 185 -4z"/>
</g>
</svg>
