<?xml version="1.0" standalone="no"?>
<!DOCTYPE svg PUBLIC "-//W3C//DTD SVG 20010904//EN"
 "http://www.w3.org/TR/2001/REC-SVG-20010904/DTD/svg10.dtd">
<svg version="1.0" xmlns="http://www.w3.org/2000/svg"
 width="1640.000000pt" height="1640.000000pt" viewBox="0 0 1640.000000 1640.000000"
 preserveAspectRatio="xMidYMid meet">

<g transform="translate(0.000000,1640.000000) scale(0.100000,-0.100000)"
fill="#000000" stroke="none">
<path d="M8818 12839 c-125 -12 -248 -59 -248 -94 0 -8 -7 -34 -14 -57 -13
-37 -28 -229 -25 -308 0 -14 0 -36 0 -50 -11 -232 -11 -308 -1 -344 8 -30 8
-49 0 -70 -7 -20 -10 -389 -9 -1260 1 -677 4 -1292 6 -1366 2 -74 3 -151 2
-170 -2 -46 -2 -184 1 -235 1 -22 1 -57 1 -77 0 -21 0 -51 0 -68 0 -16 0 -45
0 -62 0 -18 -1 -49 -2 -68 -2 -29 -2 -310 -1 -505 0 -25 0 -80 0 -122 0 -43 1
-98 2 -123 2 -57 2 -104 0 -155 -3 -42 -3 -295 -2 -355 1 -19 0 -183 -3 -365
-2 -181 -4 -458 -5 -615 -1 -301 -23 -679 -41 -712 -6 -11 -8 -31 -5 -44 4
-14 -1 -46 -9 -71 -9 -25 -13 -53 -10 -60 2 -8 -3 -36 -14 -61 -10 -26 -23
-69 -30 -96 -6 -26 -34 -85 -61 -130 -27 -44 -70 -119 -96 -166 -110 -196
-527 -548 -694 -585 -8 -2 -42 -11 -75 -19 -32 -9 -75 -16 -95 -16 -34 0 -103
-20 -143 -42 -13 -6 -119 -10 -296 -10 -275 0 -276 0 -334 26 -32 14 -74 26
-95 26 -20 0 -57 10 -82 22 -25 12 -68 21 -97 22 -41 1 -58 7 -80 28 -15 14
-66 52 -113 84 -126 85 -169 123 -321 287 -137 146 -164 184 -249 352 -22 44
-49 94 -59 110 -11 17 -22 55 -25 85 -6 62 -19 121 -32 141 -5 8 -10 37 -11
64 -15 275 -15 269 13 540 3 35 17 119 26 165 2 8 23 49 46 91 23 42 42 84 42
94 0 10 12 33 26 52 14 19 39 64 56 101 24 53 50 85 127 160 53 52 141 139
196 193 85 83 116 106 207 153 60 31 111 55 115 54 5 -2 57 21 116 50 103 51
210 80 243 68 8 -3 31 1 51 8 21 7 81 16 133 20 256 18 317 25 363 45 26 11
47 16 47 10 0 -6 7 -4 15 4 8 9 18 17 22 19 5 1 21 41 36 88 28 83 29 95 34
340 5 281 5 255 3 673 -2 261 -4 304 -20 348 -10 27 -18 51 -18 52 1 1 -4 19
-11 40 -11 32 -22 42 -69 65 -57 27 -58 27 -277 26 -122 -1 -286 -7 -365 -14
-197 -16 -203 -17 -220 -23 -17 -7 -139 -33 -190 -42 -41 -7 -76 -16 -145 -39
-27 -10 -95 -32 -150 -50 -55 -18 -115 -41 -133 -50 -18 -9 -37 -14 -42 -11
-6 3 -10 1 -10 -4 0 -6 -6 -11 -12 -11 -19 0 -259 -118 -293 -144 -16 -13 -57
-37 -90 -54 -86 -43 -218 -131 -310 -207 -44 -36 -95 -74 -113 -85 -49 -30
-221 -207 -267 -275 -22 -32 -69 -91 -105 -130 -36 -38 -72 -80 -80 -92 -8
-12 -42 -56 -74 -99 -33 -42 -86 -127 -119 -188 -32 -61 -67 -120 -77 -131
-42 -46 -210 -432 -255 -585 -7 -25 -20 -65 -29 -90 -17 -52 -44 -159 -52
-210 -2 -19 -9 -55 -14 -80 -19 -98 -23 -128 -40 -360 -25 -339 -3 -725 55
-970 3 -14 8 -34 10 -45 16 -76 26 -111 58 -197 21 -53 37 -104 37 -113 0 -9
11 -37 24 -63 13 -26 27 -58 31 -72 4 -14 13 -38 20 -55 7 -16 23 -56 35 -88
13 -32 44 -93 70 -136 25 -42 52 -91 58 -110 6 -18 28 -58 48 -89 20 -31 52
-82 70 -112 40 -64 106 -144 264 -318 63 -70 135 -153 158 -184 37 -49 126
-132 265 -249 21 -18 68 -50 105 -71 37 -22 76 -48 87 -57 11 -10 50 -35 87
-55 37 -21 70 -42 74 -47 7 -11 248 -133 284 -144 14 -3 59 -22 100 -40 83
-37 110 -48 125 -49 6 -1 24 -9 41 -18 37 -20 134 -54 184 -63 19 -4 40 -11
46 -17 7 -5 43 -10 81 -11 37 -2 75 -7 83 -12 8 -5 30 -10 49 -12 19 -2 40 -8
46 -13 7 -6 15 -7 18 -4 3 3 11 2 19 -2 7 -4 30 -10 51 -12 21 -2 51 -8 65
-13 43 -16 203 -24 462 -22 251 2 300 7 513 58 37 9 97 17 133 16 48 0 79 6
121 24 30 14 65 25 77 25 20 1 77 20 265 89 46 16 93 39 105 49 25 24 111 62
138 62 10 0 36 9 58 20 22 11 49 20 60 20 29 0 70 23 100 55 14 15 46 37 71
50 25 13 51 31 59 40 7 9 29 23 49 31 19 8 51 27 70 42 20 14 70 49 113 77 43
27 91 59 107 70 47 32 211 177 211 186 0 5 51 64 113 132 101 108 297 364 297
387 0 5 17 30 37 57 20 26 52 84 71 127 19 43 49 102 67 130 36 57 95 181 95
202 0 7 15 41 34 76 18 35 43 100 54 145 11 45 26 92 33 105 7 13 16 46 20 73
5 28 17 93 29 145 36 163 59 315 70 468 31 406 36 697 38 1877 2 1469 5 1572
55 1678 28 62 96 151 128 167 13 7 31 6 61 -5 24 -8 65 -15 91 -15 26 0 60 -6
75 -14 15 -7 50 -19 79 -26 29 -6 58 -18 64 -27 15 -17 82 -53 101 -53 6 0 62
-24 122 -54 134 -65 208 -96 233 -96 10 0 46 -13 80 -29 34 -16 89 -36 122
-45 34 -9 78 -24 99 -35 21 -11 52 -19 68 -19 16 0 52 -7 79 -17 28 -9 75 -19
105 -22 30 -2 73 -11 94 -19 37 -14 77 -20 201 -28 28 -2 82 -9 120 -15 39 -7
91 -10 118 -6 26 3 56 1 66 -5 13 -7 22 -7 26 0 3 5 30 10 58 10 41 0 61 7 96
30 53 36 73 63 65 84 -3 9 1 32 11 51 15 32 16 87 14 553 -1 284 -6 553 -11
597 -6 44 -11 103 -12 130 -3 69 -36 137 -78 162 -35 21 -129 47 -303 82 -27
6 -71 15 -97 21 -26 5 -56 10 -67 10 -11 0 -32 5 -48 12 -15 6 -32 12 -38 12
-55 8 -195 63 -195 77 0 5 -6 6 -13 3 -18 -7 -277 125 -376 191 -24 17 -73 48
-107 70 -35 22 -108 79 -161 126 -54 47 -111 93 -128 102 -33 17 -122 107
-149 150 -9 15 -49 64 -88 110 -131 151 -210 268 -299 440 -120 231 -190 419
-204 546 -2 20 -9 52 -15 71 -5 19 -10 46 -10 59 0 26 -54 211 -73 250 -21 43
-79 80 -157 101 -71 18 -106 19 -590 18 -283 0 -554 -4 -602 -9z"/>
</g>
</svg>
