<?xml version="1.0" standalone="no"?>
<!DOCTYPE svg PUBLIC "-//W3C//DTD SVG 20010904//EN"
 "http://www.w3.org/TR/2001/REC-SVG-20010904/DTD/svg10.dtd">
<svg version="1.0" xmlns="http://www.w3.org/2000/svg"
 width="1640.000000pt" height="1640.000000pt" viewBox="0 0 1640.000000 1640.000000"
 preserveAspectRatio="xMidYMid meet">

<g transform="translate(0.000000,1640.000000) scale(0.100000,-0.100000)"
fill="#000000" stroke="none">
<path d="M5930 12663 c0 -9 -308 -11 -1317 -11 -725 1 -1347 -1 -1383 -4 -80
-7 -135 -32 -150 -68 -14 -35 0 -100 31 -139 13 -16 35 -46 49 -66 14 -19 48
-67 77 -104 29 -38 64 -93 79 -123 14 -29 45 -74 68 -99 54 -61 154 -182 174
-211 9 -13 40 -51 69 -86 29 -34 53 -67 53 -72 0 -6 17 -29 38 -51 20 -23 60
-77 87 -120 28 -43 84 -117 125 -166 71 -83 121 -147 172 -222 13 -18 59 -74
102 -125 44 -50 100 -122 125 -161 24 -38 77 -108 115 -154 74 -87 99 -120
160 -211 20 -30 64 -87 99 -127 34 -39 82 -102 107 -138 25 -37 70 -97 100
-135 114 -141 185 -234 200 -261 14 -25 30 -45 141 -172 25 -28 60 -74 77
-102 53 -83 114 -167 167 -226 28 -31 72 -88 98 -125 49 -71 119 -163 203
-268 26 -33 62 -83 79 -111 31 -53 75 -109 155 -197 25 -28 63 -76 85 -108 60
-87 129 -180 168 -225 19 -22 54 -71 77 -110 24 -38 60 -88 79 -111 125 -143
178 -212 228 -294 15 -25 47 -69 70 -98 24 -29 57 -81 75 -115 28 -56 31 -73
35 -169 4 -116 -8 -159 -57 -203 -12 -11 -38 -45 -58 -75 -58 -89 -91 -129
-188 -230 -50 -52 -104 -114 -121 -138 -17 -23 -84 -101 -148 -172 -65 -71
-130 -146 -144 -168 -14 -21 -73 -89 -130 -150 -57 -61 -115 -128 -129 -149
-13 -21 -76 -90 -138 -154 -63 -64 -114 -121 -114 -128 0 -7 -55 -70 -122
-141 -227 -238 -418 -464 -418 -495 0 -9 -108 -117 -163 -164 -16 -13 -67 -84
-67 -93 0 -5 -37 -49 -83 -96 -46 -48 -108 -118 -139 -157 -31 -38 -95 -113
-143 -165 -48 -52 -105 -120 -127 -150 -23 -30 -69 -84 -103 -120 -34 -36 -68
-75 -76 -87 -8 -11 -59 -71 -114 -132 -55 -60 -109 -121 -120 -135 -11 -13
-87 -97 -170 -186 -253 -271 -395 -437 -433 -502 -23 -41 -43 -113 -43 -152 0
-30 16 -39 83 -43 34 -3 70 -9 80 -14 9 -5 33 -9 52 -9 22 0 36 -5 36 -12 0
-10 3 -10 9 0 11 19 222 13 228 -5 4 -10 9 -9 20 3 13 13 33 14 117 9 248 -15
640 -1 685 24 12 7 31 11 42 8 10 -3 19 -2 21 2 2 3 42 32 91 65 48 32 92 67
98 78 6 11 60 73 121 137 60 64 117 127 126 141 9 14 43 55 76 91 138 149 214
236 231 264 11 17 67 82 125 145 58 63 114 128 123 143 10 15 62 74 115 130
54 56 111 120 127 142 16 22 75 87 130 145 55 58 112 123 127 145 14 22 82
103 151 180 70 77 180 200 244 272 65 73 175 197 245 275 282 316 374 423 403
468 24 38 297 309 355 352 43 32 138 69 146 57 3 -5 18 -9 34 -9 27 0 38 -7
169 -112 94 -76 169 -154 214 -226 25 -38 65 -92 88 -119 24 -28 64 -79 88
-113 25 -34 63 -83 86 -108 23 -26 53 -67 68 -92 15 -25 59 -83 97 -130 38
-47 82 -102 97 -124 15 -21 42 -55 59 -75 17 -20 50 -65 74 -101 24 -36 56
-78 71 -95 15 -16 49 -62 75 -101 27 -38 73 -99 102 -135 98 -119 191 -237
216 -276 57 -84 99 -140 136 -178 37 -39 115 -142 191 -255 20 -30 46 -64 58
-75 12 -10 43 -51 69 -90 25 -38 71 -99 102 -135 57 -65 129 -159 205 -265 22
-31 50 -70 63 -88 13 -18 67 -84 121 -147 127 -149 178 -178 376 -212 38 -6
532 -11 1353 -12 711 -2 1295 -6 1299 -9 3 -4 11 -3 17 2 6 4 49 11 96 15 109
9 115 15 114 109 -1 70 -3 75 -55 152 -29 44 -71 100 -92 125 -22 25 -46 59
-55 75 -8 17 -43 62 -78 102 -34 40 -72 93 -83 119 -12 26 -45 74 -75 108 -89
101 -159 192 -194 249 -18 29 -48 69 -68 88 -20 19 -68 79 -107 134 -39 55
-92 125 -117 155 -26 30 -55 69 -66 86 -10 18 -46 67 -79 110 -33 44 -65 91
-72 107 -7 15 -59 82 -116 150 -57 67 -118 149 -137 182 -18 33 -50 78 -70
100 -21 22 -70 81 -109 130 -38 50 -90 114 -113 143 -81 100 -175 235 -211
307 -14 28 -69 100 -122 160 -53 61 -117 142 -142 180 -26 39 -67 94 -92 122
-94 108 -119 139 -154 193 -19 30 -54 73 -76 95 -23 21 -41 45 -41 51 0 7 -24
41 -54 76 -29 35 -68 90 -87 123 -37 67 -61 101 -134 183 -61 69 -105 127
-105 140 0 5 -36 53 -80 107 -44 53 -86 109 -94 123 -8 15 -24 36 -36 47 -12
11 -36 40 -53 65 -17 25 -51 68 -76 96 -81 90 -144 173 -202 265 -31 50 -94
136 -140 192 -46 56 -97 121 -112 146 -16 24 -52 69 -81 100 -29 31 -66 78
-82 105 -16 26 -37 61 -47 76 -34 53 -45 163 -27 269 6 39 12 74 12 78 1 27
51 97 122 172 46 47 91 101 101 120 9 19 65 84 124 145 59 61 120 131 136 156
15 25 80 100 144 167 202 211 560 615 631 710 19 26 85 100 146 163 62 63 118
127 125 142 8 15 62 78 120 140 58 62 134 147 169 188 35 41 104 117 152 168
48 51 88 98 88 104 0 6 47 59 104 117 57 58 113 121 124 139 10 18 47 63 81
100 34 37 172 189 306 337 135 149 276 304 314 345 38 41 84 97 102 124 19 26
43 60 54 76 11 15 29 40 39 56 11 16 42 53 69 82 49 52 49 53 42 105 -11 84
-11 85 -73 99 -76 17 -1117 15 -1183 -2 -146 -38 -187 -61 -294 -165 -56 -55
-116 -120 -133 -145 -16 -25 -72 -86 -123 -136 -111 -108 -227 -235 -251 -274
-9 -16 -70 -84 -136 -152 -66 -68 -127 -139 -137 -158 -10 -19 -66 -86 -124
-148 -58 -62 -110 -121 -115 -130 -5 -9 -63 -74 -130 -144 -166 -174 -227
-244 -271 -308 -21 -30 -85 -103 -143 -161 -57 -59 -114 -123 -126 -142 -11
-20 -72 -91 -134 -159 -62 -68 -168 -183 -235 -257 -67 -73 -180 -192 -252
-263 -157 -156 -210 -188 -310 -188 -42 0 -78 6 -98 16 -69 36 -276 257 -337
361 -14 23 -71 96 -127 161 -56 66 -111 139 -123 163 -13 24 -48 72 -79 105
-31 34 -85 103 -121 154 -36 52 -85 116 -110 143 -25 27 -44 51 -42 53 7 12
-3 30 -41 72 -47 51 -91 108 -122 158 -44 70 -73 110 -90 124 -10 8 -29 32
-42 53 -14 22 -42 58 -62 81 -21 22 -51 64 -66 91 -16 28 -54 78 -84 111 -65
72 -133 158 -171 217 -15 23 -39 53 -55 67 -15 14 -34 38 -42 54 -8 16 -43 65
-77 110 -34 44 -71 98 -83 119 -12 20 -69 90 -125 155 -57 64 -120 142 -140
174 -58 88 -124 136 -253 182 -11 4 -63 10 -115 12 -57 3 -98 10 -102 17 -6 9
-8 9 -8 0z m-281 -853 c24 -11 47 -20 52 -20 4 0 36 -16 71 -37 97 -56 270
-231 397 -402 19 -25 67 -88 105 -139 39 -51 81 -107 94 -125 13 -18 33 -43
46 -57 20 -23 44 -56 71 -99 22 -36 70 -98 101 -131 31 -34 64 -78 137 -185
19 -27 44 -59 56 -69 12 -11 31 -36 43 -55 12 -20 45 -63 73 -96 29 -33 74
-94 102 -136 27 -41 90 -125 140 -185 50 -61 96 -121 103 -135 7 -13 38 -55
69 -92 31 -38 79 -102 106 -142 28 -40 84 -113 125 -163 92 -111 228 -289 295
-386 28 -40 69 -95 91 -122 23 -27 73 -96 112 -154 39 -58 91 -125 117 -150
25 -25 66 -79 90 -120 25 -41 71 -103 104 -138 33 -35 87 -102 121 -150 33
-48 79 -109 101 -137 23 -27 57 -75 77 -105 21 -30 57 -80 81 -110 24 -30 64
-86 89 -125 24 -38 61 -88 82 -110 45 -49 118 -147 143 -195 11 -19 47 -64 82
-100 34 -36 95 -112 134 -170 40 -58 92 -130 117 -160 25 -30 58 -74 73 -98
55 -81 121 -168 281 -369 36 -45 74 -99 85 -120 11 -21 54 -77 97 -125 74 -83
117 -141 147 -197 8 -14 33 -47 56 -73 23 -25 61 -74 86 -108 24 -34 56 -77
72 -95 15 -18 27 -36 27 -39 0 -4 18 -31 40 -61 22 -30 40 -59 40 -64 0 -5 24
-36 53 -68 59 -65 122 -150 150 -202 11 -19 42 -58 70 -86 58 -57 127 -139
127 -151 0 -4 11 -22 25 -40 14 -18 25 -37 25 -42 0 -4 12 -19 26 -33 33 -31
182 -226 257 -337 32 -47 81 -111 110 -142 48 -52 147 -199 147 -218 0 -4 25
-32 56 -62 68 -67 138 -170 153 -227 9 -32 8 -60 -3 -121 -11 -69 -18 -84 -47
-112 -41 -38 -89 -61 -127 -59 -15 0 -57 -6 -95 -15 -96 -22 -334 -4 -353 26
-3 4 -14 8 -26 8 -11 0 -31 9 -45 20 -14 11 -34 20 -44 20 -9 0 -50 29 -91 65
-40 35 -95 83 -122 107 -26 24 -82 88 -122 143 -137 185 -169 227 -244 319
-42 50 -98 124 -125 165 -28 40 -75 101 -105 135 -58 64 -130 166 -130 182 0
5 -21 30 -46 54 -51 50 -184 222 -184 239 0 6 -19 32 -42 59 -107 121 -258
315 -282 360 -8 15 -41 58 -73 96 -58 69 -114 141 -157 206 -13 19 -45 55 -70
80 -25 24 -46 48 -46 53 0 4 -25 42 -55 82 -30 41 -55 79 -55 83 0 5 -14 21
-31 38 -32 30 -211 259 -288 367 -24 34 -66 91 -95 126 -56 70 -72 90 -130
171 -22 30 -58 75 -81 100 -23 25 -48 55 -56 66 -61 91 -108 153 -156 207 -31
34 -79 98 -108 142 -29 44 -69 100 -90 125 -21 25 -69 88 -107 140 -38 52 -88
118 -111 147 -23 28 -53 68 -67 88 -14 21 -50 66 -80 101 -81 93 -105 125
-131 169 -12 22 -48 67 -79 100 -52 55 -99 119 -154 209 -11 17 -43 58 -71 91
-28 33 -75 94 -104 135 -30 41 -71 94 -93 117 -21 24 -38 47 -38 52 0 6 -53
77 -118 158 -65 81 -128 166 -142 187 -13 21 -51 72 -84 112 -64 76 -124 155
-141 185 -21 37 -214 285 -240 309 -15 14 -36 41 -46 60 -11 19 -55 80 -99
135 -79 98 -102 129 -188 243 -23 31 -63 84 -87 117 -25 33 -60 80 -78 103
-18 24 -48 63 -68 85 -20 23 -77 97 -128 164 -51 67 -99 127 -107 134 -8 6
-14 16 -14 21 0 10 -40 65 -95 129 -52 61 -147 198 -178 257 -26 48 -31 71
-35 150 l-4 94 52 49 c56 52 108 74 203 83 15 2 30 6 34 9 3 4 83 7 177 7 149
0 177 -3 215 -20z"/>
</g>
</svg>
